<?xml version="1.0" encoding="UTF-8"?>
<svg id="Layer_1" data-name="Layer 1" xmlns="http://www.w3.org/2000/svg" version="1.1" viewBox="0 0 191.3 237.1">
  <defs>
    <style>
      .cls-1 {
        fill: #fff;
        stroke-width: 0px;
      }
    </style>
  </defs>
  <polygon class="cls-2" points="107 1 182.4 62 159.2 75.4 137.2 77.4 115.8 69.2 101.9 47.8 96.2 23.1 107 1"/>
  <polygon class="cls-2" points="72.6 206.3 151.8 176 151.8 199.4 143.6 217 128.1 229.5 105.8 230.7 84.7 224.2 72.6 206.3"/>
  <polygon class="cls-2" points="27.9 55.7 21.7 75.9 29.3 99.1 43.4 113.2 69.1 117.7 82.2 121.2 88.6 116.4 91.4 103.3 94.3 85.1 90.5 66.6 70 48 49 45.2 36.8 40.3 27.4 45.5 27.9 55.7"/>
  <polygon class="cls-2" points="159.1 96.8 138.7 92.3 116.5 101.6 103.7 116.6 101.3 142.2 98.9 155.4 104.2 161.3 117.3 163.1 135.5 164.4 153.4 159.2 170.1 137.5 171.1 116.6 174.9 104.2 169.1 95.4 159.1 96.8"/>
  <path class="cls-2" d="M7.8,147.7l-2.8,21.3,5.6,19.5s21.6,11.9,22.6,12.3,27.8-1.9,27.8-1.9l12.9-17.1,4.6-20.4-6.6-20.6-21.6-9.8-13.5.2-6.4-5-9.8,4.3-.2,5.1-12.8,12h0Z"/>
</svg>