<?xml version="1.0" encoding="UTF-8"?>
<svg id="Layer_1" data-name="Layer 1" xmlns="http://www.w3.org/2000/svg" viewBox="0 0 188.15 236.83">
  <defs>
    <style>
      .cls-1 {
        fill: #fff;
        stroke-width: 0px;
      }
    </style>
  </defs>
  <polygon class="cls-1" points="158.18 83.88 90.17 122.88 116.96 162.7 164.09 152.74 178.99 120.2 158.18 83.88"/>
  <polygon class="cls-1" points="97.09 170.59 100.63 177.46 109.7 178.01 126.99 172.09 137.8 175.97 139.55 187.28 153.72 196.03 156.87 214.65 142.02 227.56 114.15 236.83 94.63 230.43 83.22 208.97 85.66 189.26 97.09 170.59"/>
  <path class="cls-1" d="M26.05,135.11l-7.76-12.61-5.59,15.5-12.7,1.14,20.86,14.8-3.33,15.11,8.37,12.33,15.67,4.08-3.11,21.71s13.57-11.96,13.59-10.95c.02,1.01,7.26,13.24,7.26,13.24l5.35-18.88,14.03.21-24.11-14.33.14-.1,1.98-18.51-7.85-10.27-11.93-3.01,3.2-12.63-14.07,3.17Z"/>
  <path class="cls-1" d="M163.65,67.11l14.73,8.73-2.62-18.87,12.39-8-29.32-3.93-4.71-17.27-15.21-8.12-18.23,4.25L112.19,0s-7.45,19.55-8.02,18.52c-.56-1.02-14.56-9.65-14.56-9.65l4.68,22.21-14.48,7.33,32.39,1.7-.09.18,7.93,20.02,13.56,6.29,13.84-3.33,3.52,14.65,12.7-10.82Z"/>
  <polygon class="cls-1" points="53.5 51.2 54.83 65.34 39.25 64.13 37.24 79.71 18.51 75.78 17.93 87.78 32.22 111.11 56.23 122.92 86.57 115.49 100.72 95.82 97.45 64.94 72.57 48.25 52.64 46.43 53.5 51.2"/>
</svg>