<?xml version="1.0" encoding="UTF-8"?>
<svg id="Layer_1" data-name="Layer 1" xmlns="http://www.w3.org/2000/svg" viewBox="0 0 177.48 237.09">
  <defs>
    <style>
      .cls-1 {
        fill: #fff;
        stroke-width: 0px;
      }
    </style>
  </defs>
  <polygon class="cls-1" points="148.3 178.03 136.63 168.18 119.86 166.98 105.28 177.67 105.23 177.68 105.93 172.64 107.41 165.25 103.44 164.33 102.87 172.35 96.62 166.58 88.06 167.56 82.56 170.14 90.58 176.08 97.48 175.15 102.82 173.03 102.82 173.07 105.21 177.69 89.68 181.99 81 194.42 81.27 216.15 97.78 233.9 122.53 237.09 141.01 228.41 152.71 212.46 155.3 197.36 148.3 178.03"/>
  <polygon class="cls-1" points="70.09 152.21 57.6 135.75 39.7 127.41 33.46 128.45 34.23 124.86 29.72 127.59 27.47 124.63 26.28 128.78 21.65 127.95 23.03 130.19 18.53 130.94 3.36 146.68 0 169.05 14.91 192.82 39.16 199.4 58.73 192.24 70.1 175.67 70.09 152.21"/>
  <polygon class="cls-1" points="172.36 107.76 158.88 96.38 148.04 97.9 148.33 97.76 153.8 94.25 153.89 85.91 143 90.42 141.59 97.87 131.15 90.8 118.19 92.7 105 106.24 102.35 124.6 111.25 142.84 126.65 153.06 146.79 158.74 154.97 149.43 168.89 142.24 176.95 123.73 172.36 107.76"/>
  <polygon class="cls-1" points="40.75 47.68 35.83 55.98 24 66.43 20.46 87.33 28.15 105.78 49.66 118.99 71.18 117.46 90.09 106.08 97 87.95 95.93 63.66 78.71 49.22 63.5 47.53 51.97 43.84 40.75 47.68"/>
  <path class="cls-1" d="M172.5,21.15l-8.97-4.59-13.24-.86L162.65.16l-6.77-.16-8.53,14.83-10.87-10.28-13.19.82-16.05,13.28-5.77,21.75,2.71,19.71s6.7,11.99,7.74,12.66,13.91,5.86,13.91,5.86l18.22-2.24,15-9.45,12.7-13.09,5.72-20.41-4.98-12.31Z"/>
</svg>