<?xml version="1.0" encoding="UTF-8"?>
<svg id="Layer_1" data-name="Layer 1" xmlns="http://www.w3.org/2000/svg" viewBox="0 0 182.06 217.18">
  <defs>
    <style>
      .cls-1 {
        fill: #fff;
        stroke-width: 0px;
      }
    </style>
  </defs>
  <polygon class="cls-1" points="91.87 143 49.29 4.15 38.1 7.39 82.54 146.46 91.87 143"/>
  <polygon class="cls-1" points="52.17 181.38 44.06 135.35 54.02 102.48 40.31 117.83 39.57 97.78 25.27 88.74 6.87 97.66 4.72 108.42 18.81 127.72 0 129.57 24.27 140.8 30.82 166.04 50.02 192.14 64.78 202.34 63.01 191.8 52.17 181.38"/>
  <polygon class="cls-1" points="161.23 112.62 182.06 97.21 151.48 97.82 153.49 94.54 153.87 68.63 136.7 92.11 134.67 87.81 113.21 73.28 122.83 98.94 97.57 104.08 121.87 114.82 121.29 115.05 105.33 135.46 133.34 127.1 133.05 129.38 143.44 153.12 149.38 124.48 150.63 125.32 176.5 126.82 159.03 112.84 161.23 112.62"/>
  <polygon class="cls-1" points="84.09 210.04 98.38 185.48 127.4 165.84 146.65 162.72 157.76 184.14 141.24 205.13 118.02 212.72 97.04 217.18 84.09 210.04"/>
  <polygon class="cls-1" points="179.24 8.97 161.34 38.24 125.77 61.2 102.44 64.46 89.6 38.29 110.1 13.39 138.34 4.84 163.8 0 179.24 8.97"/>
</svg>