<?xml version="1.0" encoding="UTF-8"?>
<svg id="Layer_1" data-name="Layer 1" xmlns="http://www.w3.org/2000/svg" version="1.1" viewBox="0 0 177.6 236.3">
  <defs>
    <style>
      .cls-1 {
        fill: #fff;
        stroke-width: 0px;
      }
    </style>
  </defs>
  <polygon class="cls-2" points="168.3 25.7 157.4 13.1 171.1 1.2 166.5 0 155.3 12.8 120.9 15.5 100.8 37.4 99.6 81 153.1 64 166.1 44.2 168.3 25.7"/>
  <polygon class="cls-2" points="91.8 93 92.5 89.2 87.5 85.4 78.2 81.5 73.2 81.2 80.9 77.4 90.1 66.8 88.4 63.4 82.2 63.1 73.5 65.1 73.9 64.5 76.3 50.7 73 48.6 67.6 51.7 60.3 58.7 58.8 61.8 58.8 55.4 53.4 42.4 49.5 42.4 46.5 47.9 44.2 57.7 44.6 61.8 40.2 57.9 26.9 53.3 24.3 56.2 26.4 62 32.2 70.3 36.5 73.4 29.8 73.4 16.8 78.8 16.8 82.7 22.3 85.6 32.1 88 34.5 87.7 30.2 91.1 23.3 103.3 25.6 106.4 31.8 105.3 41 101.2 43.7 98.5 43.2 106.1 47.7 119.4 51.6 119.6 54.9 114.4 57.9 104.7 57.7 100.3 63.7 108 75.9 115 79 112.6 78 106.5 73.8 97.3 71.9 95.2 78.2 96.3 91.8 93"/>
  <path class="cls-2" d="M65.5,201.1l5-36.9-17.4-21.8-21.5-13-21-6.9-2.7,30.7s19.8,27.2,21.6,27.3,17.5,6.9,17.5,6.9l18.4,13.7h0Z"/>
  <polygon class="cls-2" points="172 130.7 177.6 93.2 158.7 95 138.8 99.4 107.7 110.7 79.7 143.4 128.3 157.9 158.2 144.1 172 130.7"/>
  <polygon class="cls-2" points="149.3 211.7 149.9 208.1 145.3 204.6 136.7 201 132 200.8 139.1 197.2 147.7 187.4 146.1 184.2 140.4 184 132.4 185.8 132.7 185.3 134.9 172.5 131.9 170.6 126.8 173.4 120.1 179.9 118.7 182.8 118.7 176.9 113.7 164.8 110.1 164.8 107.4 169.9 105.2 179 105.6 182.8 101.5 179.2 89.2 174.9 86.8 177.6 88.7 183 94.1 190.7 98 193.5 91.9 193.5 79.8 198.5 79.8 202.1 84.9 204.8 94 207 96.2 206.8 92.2 209.9 85.8 221.2 88 224.1 93.7 223.1 102.2 219.2 104.7 216.8 104.3 223.7 108.4 236.1 112 236.3 115.1 231.4 117.9 222.5 117.7 218.5 123.2 225.6 134.6 232 137.4 229.8 136.4 224.1 132.6 215.6 130.8 213.8 136.6 214.7 149.3 211.7"/>
</svg>