<svg version="1.1" xmlns="http://www.w3.org/2000/svg" xmlns:xlink="http://www.w3.org/1999/xlink" width="100%" height="100%" viewBox="0 0 145 200"><defs/><g/><g transform="scale(1,1)"><path fill="rgb(244,76,9)" stroke="none" paint-order="stroke fill markers" d=" M 21.542826303185898 170.69701545713093 L 21.8328369488219 128.60283690894204 L 51.80298454286906 99.0428263031859 L 93.89716309105795 99.33283694882189 L 123.4571736968141 129.30298454286907 L 123.16716305117811 171.39716309105793 L 93.19701545713095 200.9571736968141 L 51.102836908942066 200.6671630511781 L 21.542826303185898 170.69701545713093 L 21.542826303185898 170.69701545713093" fill-opacity="1"/><path fill="none" stroke="none"/><path fill="rgb(238,134,198)" stroke="none" paint-order="stroke fill markers" d=" M 72.5 7.5 L 72.5 7.5 L 72.5 7.5 A 47.5 47.5 0 0 1 120 55 L 120 102.5 L 25 102.5 L 25 55 L 25 55.00000000000001 A 47.5 47.5 0 0 1 72.5 7.5 Z" fill-opacity="1"/><path fill="rgb(2,131,192)" stroke="none" paint-order="stroke fill markers" d=" M 37 125 L 108 125 L 108 155 L 37 155 L 37 125 Z" fill-opacity="1"/><path fill="rgb(0,88,170)" stroke="none" paint-order="stroke fill markers" d=" M 42 130 L 62 130 L 62 150 L 42 150 L 42 130 Z" fill-opacity="1"/><g transform="scale(1,1)"/></g></svg>