<svg version="1.1" xmlns="http://www.w3.org/2000/svg" xmlns:xlink="http://www.w3.org/1999/xlink" width="100%" height="100%" viewBox="0 0 145 200"><defs/><g/><g transform="scale(1,1)"><path fill="rgb(8,137,2)" stroke="none" paint-order="stroke fill markers" d=" M 72.5 199 L 20.191891603766557 160.9959346906221 L 40.17181112391397 99.50406530937789 L 104.82818887608602 99.50406530937789 L 124.80810839623345 160.9959346906221 L 72.5 199 L 72.5 199" fill-opacity="1"/><path fill="rgb(0,64,240)" stroke="none" paint-order="stroke fill markers" d=" M 22.5 50 C 22.5 22.385762510000003 44.885762510000006 0 72.5 0 C 100.11423749 0 122.5 22.385762510000003 122.5 50 C 122.5 77.61423749 100.11423749 100 72.5 100 C 44.885762510000006 100 22.5 77.61423749 22.5 50 Z" fill-opacity="1"/><path fill="rgb(2,131,192)" stroke="none" paint-order="stroke fill markers" d=" M 37 125 L 67 125 L 67 155 L 37 155 L 37 125 Z" fill-opacity="1"/><path fill="rgb(2,131,192)" stroke="none" paint-order="stroke fill markers" d=" M 78 125 L 108 125 L 108 155 L 78 155 L 78 125 Z" fill-opacity="1"/><path fill="rgb(2,131,192)" stroke="none" paint-order="stroke fill markers" d=" M 57.5 40 L 87.5 40 L 87.5 70 L 57.5 70 L 57.5 40 Z" fill-opacity="1"/><path fill="rgb(0,88,170)" stroke="none" paint-order="stroke fill markers" d=" M 39.5 140 C 39.5 133.0964406275 45.0964406275 127.5 52 127.5 C 58.9035593725 127.5 64.5 133.0964406275 64.5 140 C 64.5 146.9035593725 58.9035593725 152.5 52 152.5 C 45.0964406275 152.5 39.5 146.9035593725 39.5 140 Z" fill-opacity="1"/><path fill="rgb(0,88,170)" stroke="none" paint-order="stroke fill markers" d=" M 80.5 140 C 80.5 133.0964406275 86.0964406275 127.5 93 127.5 C 99.9035593725 127.5 105.5 133.0964406275 105.5 140 C 105.5 146.9035593725 99.9035593725 152.5 93 152.5 C 86.0964406275 152.5 80.5 146.9035593725 80.5 140 Z" fill-opacity="1"/><path fill="rgb(0,88,170)" stroke="none" paint-order="stroke fill markers" d=" M 60 55 C 60 48.0964406275 65.5964406275 42.5 72.5 42.5 C 79.4035593725 42.5 85 48.0964406275 85 55 C 85 61.9035593725 79.4035593725 67.5 72.5 67.5 C 65.5964406275 67.5 60 61.9035593725 60 55 Z" fill-opacity="1"/><g transform="scale(1,1)"/></g></svg>