<?xml version="1.0" encoding="utf-8"?>
<!-- Generator: Adobe Illustrator 27.5.0, SVG Export Plug-In . SVG Version: 6.00 Build 0)  -->
<svg version="1.1" id="Layer_1" xmlns="http://www.w3.org/2000/svg" xmlns:xlink="http://www.w3.org/1999/xlink" x="0px" y="0px"
	 viewBox="0 0 700 700" style="enable-background:new 0 0 700 700;" xml:space="preserve">
<style type="text/css">
	.st0{fill:#0D6EFD;}
</style>
<g>
	<g>
		<path class="st0" d="M553.4,129.6H146.6c-34.3,0-62.2,27.9-62.2,62.2c0,0,0,272.6,0,316.5s33.4,62.2,62.2,62.2h406.9
			c34.3,0,62.2-27.9,62.2-62.2V191.8C615.6,157.5,587.7,129.6,553.4,129.6L553.4,129.6z M237,237c25,0,45.2,20.2,45.2,45.2
			s-20.2,45.2-45.2,45.2s-45.2-20.2-45.2-45.2C191.8,257.2,212,237,237,237z M581.7,508.2c0,15.6-12.7,28.3-28.3,28.3H146.6
			c-15.6,0-28.3-12.7-28.3-28.3v-15.6l73.5-73.5l67.8,67.8L463,283.6l118.7,118.7L581.7,508.2z"/>
	</g>
</g>
</svg>
