<svg version="1.1" xmlns="http://www.w3.org/2000/svg" xmlns:xlink="http://www.w3.org/1999/xlink" width="145" height="200" viewBox="0 0 145 200"><defs/><g/><g transform="scale(1,1) scale(1,1)"><path fill="rgb(0,0,0)" stroke="none" paint-order="stroke fill markers" d=" M 17.833333333333336 129 C 17.833333333333336 112.1553151311 31.488648464433336 98.5 48.333333333333336 98.5 C 65.17801820223333 98.5 78.83333333333334 112.1553151311 78.83333333333334 129 C 78.83333333333334 145.8446848689 65.17801820223333 159.5 48.333333333333336 159.5 C 31.488648464433336 159.5 17.833333333333336 145.8446848689 17.833333333333336 129 Z" fill-opacity="1"/><path fill="rgb(0,0,0)" stroke="none" paint-order="stroke fill markers" d=" M 66.16666666666666 129 C 66.16666666666666 112.1553151311 79.82198179776665 98.5 96.66666666666666 98.5 C 113.51135153556666 98.5 127.16666666666666 112.1553151311 127.16666666666666 129 C 127.16666666666666 145.8446848689 113.51135153556666 159.5 96.66666666666666 159.5 C 79.82198179776665 159.5 66.16666666666666 145.8446848689 66.16666666666666 129 Z" fill-opacity="1"/><path fill="rgb(0,0,0)" stroke="none" paint-order="stroke fill markers" d=" M 17.833333333333336 169 C 17.833333333333336 152.1553151311 31.488648464433336 138.5 48.333333333333336 138.5 C 65.17801820223333 138.5 78.83333333333334 152.1553151311 78.83333333333334 169 C 78.83333333333334 185.8446848689 65.17801820223333 199.5 48.333333333333336 199.5 C 31.488648464433336 199.5 17.833333333333336 185.8446848689 17.833333333333336 169 Z" fill-opacity="1"/><path fill="rgb(0,0,0)" stroke="none" paint-order="stroke fill markers" d=" M 66.16666666666666 169 C 66.16666666666666 152.1553151311 79.82198179776665 138.5 96.66666666666666 138.5 C 113.51135153556666 138.5 127.16666666666666 152.1553151311 127.16666666666666 169 C 127.16666666666666 185.8446848689 113.51135153556666 199.5 96.66666666666666 199.5 C 79.82198179776665 199.5 66.16666666666666 185.8446848689 66.16666666666666 169 Z" fill-opacity="1"/><path fill="rgb(0,0,0)" stroke="none" paint-order="stroke fill markers" d=" M 47.5 150 C 47.5 136.192881255 58.692881255 125 72.5 125 C 86.307118745 125 97.5 136.192881255 97.5 150 C 97.5 163.807118745 86.307118745 175 72.5 175 C 58.692881255 175 47.5 163.807118745 47.5 150 Z" fill-opacity="1"/></g></svg>