<svg version="1.1" xmlns="http://www.w3.org/2000/svg" xmlns:xlink="http://www.w3.org/1999/xlink" width="145" height="200" viewBox="0 0 145 200"><defs/><g/><g transform="scale(1,1) scale(2,2) translate(-36,-90) scale(1,1)"><path fill="rgb(2,131,192)" stroke="none" paint-order="stroke fill markers" d=" M 37 125 L 67 125 L 67 155 L 37 155 L 37 125 Z" fill-opacity="1"/><path fill="rgb(2,131,192)" stroke="none" paint-order="stroke fill markers" d=" M 78 125 L 108 125 L 108 155 L 78 155 L 78 125 Z" fill-opacity="1"/><g><path fill="rgb(0,88,170)" stroke="none" paint-order="stroke fill markers" d=" M 58.5 151.2583302491977 L 45.5 151.2583302491977 L 39 140 L 45.49999999999999 128.74166975080232 L 58.49999999999999 128.7416697508023 L 65 140 L 58.5 151.2583302491977 L 58.5 151.2583302491977" fill-opacity="1"/></g><g><path fill="rgb(0,88,170)" stroke="none" paint-order="stroke fill markers" d=" M 99.5 151.2583302491977 L 86.5 151.2583302491977 L 80 140 L 86.5 128.74166975080232 L 99.49999999999999 128.7416697508023 L 106 140 L 99.5 151.2583302491977 L 99.5 151.2583302491977" fill-opacity="1"/></g></g></svg>