<svg version="1.1" xmlns="http://www.w3.org/2000/svg" xmlns:xlink="http://www.w3.org/1999/xlink" width="145" height="200" viewBox="0 0 145 200"><defs/><g/><g transform="scale(1,1) scale(1.5,1.5) translate(-25,-31) scale(1,1)"><path fill="rgb(2,131,192)" stroke="none" paint-order="stroke fill markers" d=" M 37 125 L 67 125 L 67 155 L 37 155 L 37 125 Z" fill-opacity="1"/><path fill="rgb(2,131,192)" stroke="none" paint-order="stroke fill markers" d=" M 78 125 L 108 125 L 108 155 L 78 155 L 78 125 Z" fill-opacity="1"/><path fill="rgb(2,131,192)" stroke="none" paint-order="stroke fill markers" d=" M 57.5 40 L 87.5 40 L 87.5 70 L 57.5 70 L 57.5 40 Z" fill-opacity="1"/><path fill="rgb(0,88,170)" stroke="none" paint-order="stroke fill markers" d=" M 39.5 140 C 39.5 133.0964406275 45.0964406275 127.5 52 127.5 C 58.9035593725 127.5 64.5 133.0964406275 64.5 140 C 64.5 146.9035593725 58.9035593725 152.5 52 152.5 C 45.0964406275 152.5 39.5 146.9035593725 39.5 140 Z" fill-opacity="1"/><path fill="rgb(0,88,170)" stroke="none" paint-order="stroke fill markers" d=" M 80.5 140 C 80.5 133.0964406275 86.0964406275 127.5 93 127.5 C 99.9035593725 127.5 105.5 133.0964406275 105.5 140 C 105.5 146.9035593725 99.9035593725 152.5 93 152.5 C 86.0964406275 152.5 80.5 146.9035593725 80.5 140 Z" fill-opacity="1"/><path fill="rgb(0,88,170)" stroke="none" paint-order="stroke fill markers" d=" M 60 55 C 60 48.0964406275 65.5964406275 42.5 72.5 42.5 C 79.4035593725 42.5 85 48.0964406275 85 55 C 85 61.9035593725 79.4035593725 67.5 72.5 67.5 C 65.5964406275 67.5 60 61.9035593725 60 55 Z" fill-opacity="1"/></g></svg>