<?xml version="1.0" encoding="UTF-8"?><svg id="a" xmlns="http://www.w3.org/2000/svg" viewBox="0 0 24 24"><defs><style>.b{fill:#0f0f0f;}.c{fill:#fff;}.d{fill:none;}</style></defs><path class="d" d="M0,0H24V24H0V0Z"/><circle class="b" cx="12" cy="12" r="8"/><path class="c" d="M11,18h2v-2h-2v2ZM12,2C6.48,2,2,6.48,2,12s4.48,10,10,10,10-4.48,10-10S17.52,2,12,2Zm0,18c-4.41,0-8-3.59-8-8S7.59,4,12,4s8,3.59,8,8-3.59,8-8,8Zm0-14c-2.21,0-4,1.79-4,4h2c0-1.1,.9-2,2-2s2,.9,2,2c0,2-3,1.75-3,5h2c0-2.25,3-2.5,3-5,0-2.21-1.79-4-4-4Z"/></svg>